<svg xmlns="http://www.w3.org/2000/svg" viewBox="0 0 400 400"><defs><linearGradient id="g" gradientTransform="rotate(111 .5 .5)"><stop offset="0" stop-color="#084C5A"/><stop offset="1" stop-color="#0E8096"/></linearGradient></defs><rect width="400" height="400" fill="url(#g)"/><g stroke="#fff" stroke-opacity=".12" stroke-width="5" stroke-linecap="round"><line x1="207.0" y1="210.0" x2="570.8" y2="287.3"/><line x1="202.8" y1="221.8" x2="534.2" y2="390.7"/><line x1="195.7" y1="232.1" x2="472.1" y2="481.0"/><line x1="186.1" y1="240.3" x2="388.7" y2="552.2"/><line x1="174.8" y1="245.7" x2="289.8" y2="599.4"/><line x1="162.5" y1="247.9" x2="182.0" y2="619.4"/><line x1="150.0" y1="247.0" x2="72.7" y2="610.8"/><line x1="138.2" y1="242.8" x2="-30.7" y2="574.2"/><line x1="127.9" y1="235.7" x2="-121.0" y2="512.1"/><line x1="119.7" y1="226.1" x2="-192.2" y2="428.7"/><line x1="114.3" y1="214.8" x2="-239.4" y2="329.8"/><line x1="112.1" y1="202.5" x2="-259.4" y2="222.0"/><line x1="113.0" y1="190.0" x2="-250.8" y2="112.7"/><line x1="117.2" y1="178.2" x2="-214.2" y2="9.3"/><line x1="124.3" y1="167.9" x2="-152.1" y2="-81.0"/><line x1="133.9" y1="159.7" x2="-68.7" y2="-152.2"/><line x1="145.2" y1="154.3" x2="30.2" y2="-199.4"/><line x1="157.5" y1="152.1" x2="138.0" y2="-219.4"/><line x1="170.0" y1="153.0" x2="247.3" y2="-210.8"/><line x1="181.8" y1="157.2" x2="350.7" y2="-174.2"/><line x1="192.1" y1="164.3" x2="441.0" y2="-112.1"/><line x1="200.3" y1="173.9" x2="512.2" y2="-28.7"/><line x1="205.7" y1="185.2" x2="559.4" y2="70.2"/><line x1="207.9" y1="197.5" x2="579.4" y2="178.0"/></g><circle cx="160" cy="200" r="34" fill="none" stroke="#fff" stroke-opacity=".5" stroke-width="2.5"/></svg>